<svg xmlns="http://www.w3.org/2000/svg" width="155" height="155.428" viewBox="0 0 155 155.428">
  <g id="Logo" transform="translate(-514.232 -221.242)">
    <g id="Background_Shadow" data-name="Background Shadow" transform="matrix(0.574, 0.819, -0.819, 0.574, 603.214, 221.242)" fill="#f2d2ca">
      <path d="M 44.89008712768555 108.1260757446289 C 42.229736328125 108.1260757446289 39.45756912231445 107.816520690918 36.65060424804688 107.2060089111328 C 32.42322158813477 106.2865753173828 28.69533729553223 104.7116546630859 25.57048797607422 102.5250244140625 C 22.77530288696289 100.5690536499023 20.40080451965332 98.08070373535156 18.51296997070312 95.12911987304688 C 16.44306945800781 91.89289093017578 14.91785335540771 88.04402160644531 13.97968673706055 83.68942260742188 C 13.22657012939453 80.19375610351562 12.84803676605225 76.36717224121094 12.8546199798584 72.31594085693359 C 12.86585330963135 65.41139221191406 14.00608730316162 60.19875717163086 14.01760387420654 60.14690780639648 L 14.07207012176514 59.90174102783203 L 13.90787029266357 59.71162414550781 C 13.89128684997559 59.69242477416992 12.22508716583252 57.75500869750977 10.09877014160156 54.58947372436523 C 8.139670372009277 51.67287445068359 5.377603530883789 47.08662414550781 3.344686985015869 41.80080795288086 C 1.069953680038452 35.88627243041992 0.1524537056684494 30.31773948669434 0.6176703572273254 25.24990653991699 C 0.8927037119865417 22.25380706787109 1.660786986351013 19.40005683898926 2.90058708190918 16.76792335510254 C 4.265686988830566 13.86980724334717 6.238253593444824 11.16528987884521 8.763504028320312 8.729506492614746 C 14.42483711242676 3.268790245056152 21.1302375793457 0.499973475933075 28.69342041015625 0.499973475933075 C 32.28175354003906 0.499973475933075 36.08440399169922 1.126156806945801 39.99573516845703 2.361123561859131 C 43.13467025756836 3.352190017700195 46.34975433349609 4.735173225402832 49.55167007446289 6.471606731414795 C 55.01493835449219 9.434423446655273 58.58908843994141 12.43824005126953 58.62455368041992 12.46822357177734 L 58.79011917114258 12.60827350616455 L 59.00561904907227 12.58314037322998 C 59.03603744506836 12.57957363128662 62.10025405883789 12.22743988037109 66.64600372314453 12.22743988037109 C 73.46772003173828 12.22743988037109 83.41958618164062 13.00339031219482 92.09043884277344 16.70000648498535 C 102.4022521972656 21.09622383117676 108.3160171508789 28.51227378845215 109.6674728393555 38.74215698242188 C 110.6218872070312 45.96657180786133 109.7088851928711 52.61267471313477 106.9538726806641 58.49582290649414 C 104.7489547729492 63.20425796508789 101.3636856079102 67.44390869140625 96.89208984375 71.09699249267578 C 89.25828552246094 77.33347320556641 81.0196533203125 79.71635437011719 80.93731689453125 79.73970794677734 L 80.69087219238281 79.8095703125 L 80.60360717773438 80.05042266845703 C 80.57808685302734 80.12077331542969 77.98188781738281 87.17550659179688 72.28532409667969 94.13032531738281 C 68.95137023925781 98.20067596435547 65.22230529785156 101.4418106079102 61.20172119140625 103.7636566162109 C 56.18917083740234 106.6583404541016 50.70115280151367 108.1260757446289 44.89008712768555 108.1260757446289 Z" stroke="none"/>
      <path d="M 44.89008712768555 107.6260757446289 C 50.60638809204102 107.6260757446289 56.00521850585938 106.1838073730469 60.93661880493164 103.33935546875 C 64.90275573730469 101.0516586303711 68.58441925048828 97.85457611083984 71.87933349609375 93.83690643310547 C 77.52940368652344 86.94745635986328 80.10826873779297 79.94956970214844 80.13350677490234 79.88010406494141 L 80.30802154541016 79.39840698242188 L 80.80093383789062 79.25865936279297 C 80.88227081298828 79.23560333251953 89.02128601074219 76.88145446777344 96.57575225830078 70.70979309082031 C 100.9888381958008 67.1044921875 104.3281860351562 62.92377471923828 106.5010528564453 58.28377532958984 C 109.2149200439453 52.48854064941406 110.1134719848633 45.93582534790039 109.1717834472656 38.80764007568359 C 107.845100402832 28.76530647277832 102.0321350097656 21.48197364807129 91.89435577392578 17.15995597839355 C 83.30113983154297 13.49643993377686 73.42111968994141 12.72743988037109 66.64600372314453 12.72743988037109 C 62.13441848754883 12.72743988037109 59.09381866455078 13.07624053955078 59.06383514404297 13.07974052429199 L 58.63290405273438 13.12995719909668 L 58.30171966552734 12.85004043579102 C 58.26650238037109 12.82027339935303 54.71628570556641 9.838640213012695 49.29293823242188 6.900090217590332 C 46.12123870849609 5.181573390960693 42.93817138671875 3.813473463058472 39.8321533203125 2.833790063858032 C 35.97422027587891 1.616956830024719 32.22660446166992 0.999973475933075 28.69342041015625 0.999973475933075 C 21.26416969299316 0.999973475933075 14.67555332183838 3.721640110015869 9.110620498657227 9.089389801025391 C 6.631003856658936 11.48114013671875 4.694803714752197 14.13419055938721 3.355820417404175 16.97484016418457 C 2.140953779220581 19.55215644836426 1.387620329856873 22.34738922119141 1.116753697395325 25.28292274475098 C 0.6565203666687012 30.27040672302246 1.560153722763062 35.75973892211914 3.802553653717041 41.59842300415039 C 5.815753936767578 46.84032440185547 8.555486679077148 51.3929557800293 10.4993200302124 54.2890739440918 C 12.61273670196533 57.43787384033203 14.26983737945557 59.36575698852539 14.28613662719727 59.3846549987793 L 14.614670753479 59.76483917236328 L 14.50570392608643 60.25532531738281 C 14.49431991577148 60.306640625 13.36575412750244 65.46602630615234 13.3546199798584 72.31675720214844 C 13.34810352325439 76.33237457275391 13.7228536605835 80.12326049804688 14.46847057342529 83.58412170410156 C 15.3940372467041 87.88022613525391 16.89652061462402 91.67388916015625 18.9341869354248 94.85972595214844 C 20.7866039276123 97.75592041015625 23.11581993103027 100.1970748901367 25.85715293884277 102.1153564453125 C 28.92740440368652 104.263786315918 32.5946044921875 105.8121566772461 36.75687026977539 106.7174377441406 C 39.52900314331055 107.3203582763672 42.26540374755859 107.6260757446289 44.89008712768555 107.6260757446289 M 44.89009094238281 108.6260681152344 C 42.26916885375977 108.6260681152344 39.49052047729492 108.3353729248047 36.54433822631836 107.6945877075195 C 4.492353916168213 100.7234268188477 13.52950382232666 60.03849029541016 13.52950382232666 60.03849029541016 C 13.52950382232666 60.03849029541016 -13.14626312255859 29.1682071685791 8.416386604309082 8.369640350341797 C 14.83753967285156 2.176023960113525 21.91935729980469 -2.087402390316129e-05 28.69342803955078 -2.087402390316129e-05 C 44.66712951660156 -2.087402390316129e-05 58.94750213623047 12.08652305603027 58.94750213623047 12.08652305603027 C 58.94750213623047 12.08652305603027 62.01305770874023 11.72744083404541 66.64599609375 11.72744083404541 C 80.15505218505859 11.72744083404541 107.0059585571289 14.77803230285645 110.1631698608398 38.67667388916016 C 114.4031372070312 70.77133941650391 81.07369995117188 80.22074127197266 81.07369995117188 80.22074127197266 C 81.07369995117188 80.22074127197266 70.78255462646484 108.6260681152344 44.89009094238281 108.6260681152344 Z" stroke="none" fill="#f2d2ca"/>
    </g>
    <g id="Background" transform="matrix(0.574, 0.819, -0.819, 0.574, 605.831, 223.819)" fill="#fdded6">
      <path d="M 44.89007186889648 108.1260757446289 C 42.22972106933594 108.1260757446289 39.45755386352539 107.816520690918 36.65058517456055 107.2060089111328 C 32.42320251464844 106.2865753173828 28.69532012939453 104.7116546630859 25.57047080993652 102.5250244140625 C 22.77528762817383 100.5690536499023 20.40078735351562 98.08072662353516 18.51295280456543 95.12911987304688 C 16.44305419921875 91.89289093017578 14.91785335540771 88.04402160644531 13.97967052459717 83.68942260742188 C 13.22655391693115 80.19375610351562 12.84803676605225 76.36717224121094 12.8546199798584 72.31594085693359 C 12.86583709716797 65.41139221191406 14.00608730316162 60.19875717163086 14.01760387420654 60.14690780639648 L 14.07207012176514 59.90174102783203 L 13.90787029266357 59.71162414550781 C 13.89128684997559 59.69242477416992 12.22508716583252 57.75500869750977 10.09877014160156 54.58947372436523 C 8.139670372009277 51.67287445068359 5.377603530883789 47.08662414550781 3.344686985015869 41.80080795288086 C 1.069953680038452 35.88627243041992 0.1524537056684494 30.31773948669434 0.6176703572273254 25.24990653991699 C 0.8927037119865417 22.25380706787109 1.660786986351013 19.40005683898926 2.90058708190918 16.76792335510254 C 4.265686988830566 13.86980724334717 6.238253593444824 11.16528987884521 8.763504028320312 8.729506492614746 C 14.42483711242676 3.268790245056152 21.1302375793457 0.499973475933075 28.69342041015625 0.499973475933075 C 32.28175354003906 0.499973475933075 36.08440399169922 1.126156806945801 39.99573516845703 2.361123561859131 C 43.13467025756836 3.352190017700195 46.34975433349609 4.735173225402832 49.55167007446289 6.471606731414795 C 55.01493835449219 9.434423446655273 58.58908843994141 12.43824005126953 58.62455368041992 12.46822357177734 L 58.79011917114258 12.60827350616455 L 59.00561904907227 12.58314037322998 C 59.03603744506836 12.57957363128662 62.10026931762695 12.22743988037109 66.64600372314453 12.22743988037109 C 73.46772003173828 12.22743988037109 83.41958618164062 13.00339031219482 92.09043884277344 16.70000648498535 C 102.4022369384766 21.09620666503906 108.3160018920898 28.51225662231445 109.6674499511719 38.74214172363281 C 110.6218719482422 45.96655654907227 109.7088851928711 52.61265563964844 106.953857421875 58.49582290649414 C 104.7489547729492 63.20425796508789 101.3636703491211 67.44389343261719 96.89208984375 71.09699249267578 C 89.25827026367188 77.33347320556641 81.01963806152344 79.71635437011719 80.93730163574219 79.73970794677734 L 80.69085693359375 79.8095703125 L 80.60358428955078 80.05042266845703 C 80.57807159423828 80.12077331542969 77.98187255859375 87.17550659179688 72.28530120849609 94.13032531738281 C 68.95135498046875 98.20067596435547 65.2222900390625 101.4418106079102 61.20170211791992 103.7636566162109 C 56.18915557861328 106.6583404541016 50.70113754272461 108.1260757446289 44.89007186889648 108.1260757446289 Z" stroke="none"/>
      <path d="M 44.89007186889648 107.6260757446289 C 50.60636901855469 107.6260757446289 56.00520324707031 106.1838073730469 60.93660354614258 103.33935546875 C 64.90274047851562 101.0516586303711 68.58440399169922 97.85457611083984 71.87931823730469 93.83690643310547 C 77.52938842773438 86.94745635986328 80.10825347900391 79.94956970214844 80.13348388671875 79.88010406494141 L 80.30800628662109 79.39840698242188 L 80.80091857910156 79.25865936279297 C 80.88225555419922 79.23560333251953 89.02127075195312 76.88145446777344 96.57573699951172 70.70979309082031 C 100.9888229370117 67.1044921875 104.3281860351562 62.92377471923828 106.5010528564453 58.28377532958984 C 109.2149047851562 52.48852157592773 110.1134567260742 45.93580627441406 109.1717681884766 38.80762481689453 C 107.845085144043 28.76528930664062 102.0321350097656 21.48195648193359 91.89435577392578 17.15995597839355 C 83.30115509033203 13.49643993377686 73.42113494873047 12.72743988037109 66.64600372314453 12.72743988037109 C 62.13443756103516 12.72743988037109 59.09381866455078 13.07624053955078 59.06383514404297 13.07974052429199 L 58.63290405273438 13.12995719909668 L 58.30171966552734 12.85004043579102 C 58.26650238037109 12.82027339935303 54.71628570556641 9.838640213012695 49.29293823242188 6.900090217590332 C 46.12123870849609 5.181573390960693 42.93817138671875 3.813473463058472 39.8321533203125 2.833790063858032 C 35.97422027587891 1.616956830024719 32.22660446166992 0.999973475933075 28.69342041015625 0.999973475933075 C 21.26416969299316 0.999973475933075 14.67555332183838 3.721640110015869 9.110620498657227 9.089389801025391 C 6.631003856658936 11.48114013671875 4.694803714752197 14.13419055938721 3.355820417404175 16.97484016418457 C 2.140953779220581 19.55215644836426 1.387620329856873 22.34738922119141 1.116753697395325 25.28292274475098 C 0.6565203666687012 30.27040672302246 1.560153722763062 35.75973892211914 3.802553653717041 41.59842300415039 C 5.815753936767578 46.84032440185547 8.555486679077148 51.3929557800293 10.4993200302124 54.2890739440918 C 12.61273670196533 57.43787384033203 14.26983737945557 59.36575698852539 14.28613662719727 59.3846549987793 L 14.614670753479 59.76483917236328 L 14.50570392608643 60.25532531738281 C 14.49431991577148 60.306640625 13.36575412750244 65.46602630615234 13.3546199798584 72.31675720214844 C 13.34808731079102 76.33237457275391 13.72283744812012 80.12326049804688 14.46847057342529 83.58412170410156 C 15.3940372467041 87.88022613525391 16.89650344848633 91.67388916015625 18.93416976928711 94.85972595214844 C 20.78658676147461 97.75592041015625 23.11580276489258 100.1970748901367 25.85713768005371 102.1153564453125 C 28.92738723754883 104.263786315918 32.59458541870117 105.8121566772461 36.75685501098633 106.7174377441406 C 39.52898788452148 107.3203582763672 42.26538848876953 107.6260757446289 44.89007186889648 107.6260757446289 M 44.89007186889648 108.6260681152344 C 42.2691535949707 108.6260681152344 39.49050521850586 108.3353729248047 36.54431915283203 107.6945877075195 C 4.492337226867676 100.7234268188477 13.52950382232666 60.03849029541016 13.52950382232666 60.03849029541016 C 13.52950382232666 60.03849029541016 -13.14626312255859 29.1682071685791 8.416386604309082 8.369640350341797 C 14.83753967285156 2.176023960113525 21.91935729980469 -2.087402390316129e-05 28.69342803955078 -2.087402390316129e-05 C 44.66712951660156 -2.087402390316129e-05 58.94750213623047 12.08652305603027 58.94750213623047 12.08652305603027 C 58.94750213623047 12.08652305603027 62.01306533813477 11.72744083404541 66.64600372314453 11.72744083404541 C 80.15505218505859 11.72744083404541 107.0059509277344 14.77802753448486 110.1631546020508 38.67665863037109 C 114.4031372070312 70.77133941650391 81.07368469238281 80.22074127197266 81.07368469238281 80.22074127197266 C 81.07368469238281 80.22074127197266 70.78253936767578 108.6260681152344 44.89007186889648 108.6260681152344 Z" stroke="none" fill="#fdded6"/>
    </g>
    <path id="D" d="M0,58.694V.232S32.381-4.62,32.381,30.047c0,25.731-17.84,29.047-27.036,29.047A32.266,32.266,0,0,1,0,58.694ZM0,.232v0Z" transform="translate(573.06 264.305)" fill="#1b6b7e" stroke="#1b6b7e" stroke-width="1"/>
    <path id="C" d="M21.862-.132S0-2.924,0,17.022,21.862,33.5,21.862,33.5" transform="translate(595.571 277.102)" fill="#b6ea82" stroke="#b6ea82" stroke-width="1"/>
  </g>
</svg>
