<svg xmlns="http://www.w3.org/2000/svg" xmlns:xlink="http://www.w3.org/1999/xlink" width="468" height="377.21" viewBox="0 0 468 377.21">
  <defs>
    <clipPath id="clip-css-animation">
      <rect width="468" height="377.21"/>
    </clipPath>
  </defs>
  <g id="css-animation" clip-path="url(#clip-css-animation)">
    <rect width="468" height="377.21" fill="#ebfdff"/>
    <path id="yellow-paisley" d="M70.959,32.332c-5.18,12.183-24.8,3.4-44.524,7.751S6.1,55.4.68,48,23.356-1.8,44.848.059C63.049,1.516,76.139,20.149,70.959,32.332Z" transform="matrix(1, 0.017, -0.017, 1, 79.027, 3.689)" fill="#faefb4"/>
    <path id="top-left-black-squiggle" d="M12.755,8.732c3.3,0,3.76-8.258,7.044-8.258S23.728,9.1,26.732,8.732,31.109-2.351,32.569.474s.262,18.709,0,19.559c-.9,1.686-3.558,7.727-5.836,7.794-3.649.108-3.439-7.794-6.933-7.794s-3.739,7.794-7.044,7.794S9.578,20.032,6.58,20.032,2.217,30.652.762,27.827.3,12.642.762,8.732,3.582.474,6.58.474,9.45,8.732,12.755,8.732Z" transform="translate(38.924 113.706) rotate(-134)" fill="#151b1f"/>
    <path id="left-middle-yellow" d="M13.744,14.107C9.561,7.972,1.285,11.615.092,6.679S7.955-.189,9.7,0s5.252.574,8.66,5.574C22.541,11.709,17.207,19.187,13.744,14.107Z" transform="matrix(-0.755, -0.656, 0.656, -0.755, 27.655, 201.385)" fill="#faefb4"/>
    <path id="bottom-left-purple" d="M18.366,18.851C12.779,10.655,1.722,15.521.128,8.927S10.633-.249,12.962,0s7.016.767,11.57,7.446C30.119,15.646,22.993,25.637,18.366,18.851Z" transform="translate(114.127 226.152) rotate(112)" fill="#c6c4f5"/>
    <g id="pink-flower" transform="translate(19 50)">
      <path id="Path_111" data-name="Path 111" d="M35.1,34.415s1.053,26.926-16.3,23.152-2.889-29.71-2.889-29.71S-9.086,17.626,3.582,3.8,28.739,18.292,28.739,18.292,56.072,2.379,58.657,20.208,35.1,34.415,35.1,34.415Z" transform="matrix(0.995, -0.105, 0.105, 0.995, 12.102, 243.129)" fill="#fdded6"/>
      <path id="Path_112" data-name="Path 112" d="M31.194,31.471S35.846,60.7,18.5,56.931s-3.58-27.646-3.58-27.646S-8.4,14.425,3.271,3.166,29.014,14.289,29.014,14.289,56.051,2.2,58.346,19.572,31.194,31.471,31.194,31.471Z" transform="matrix(0.574, 0.819, -0.819, 0.574, 46.983, 231.163)" fill="#fdded6"/>
    </g>
    <path id="bottom-left-black-flower" d="M13.853,14.354S13.588,23.63,7.316,21.6s-1.609-9.68-1.609-9.68S-2.578,7.9,2.574,2.323s8.815,2.993,8.815,2.993,8.289-3.808,9.627,2.624S13.853,14.354,13.853,14.354Z" transform="translate(159.286 361.6) rotate(135)" fill="#242424"/>
    <path id="bottom-magenta" d="M17.134,19.207C11.921,10.856,1.606,15.815.119,9.1S9.919-.253,12.092,0s6.545.781,10.794,7.587C28.1,15.942,21.45,26.121,17.134,19.207Z" transform="translate(247.563 319.556) rotate(-63)" fill="#ea5176"/>
    <path id="bottom-right-black-blob" d="M33.222,16.513c5.891,4.8,5,11.907,5.478,15.847s.512,5.234-4.464,6.618-7.382-2.025-11.112-7.495-7.043-6.064-11.226-12.2S27.331,11.714,33.222,16.513Z" transform="translate(397.404 347.789) rotate(146)" fill="#151b1f"/>
    <path id="bottom-right-purple-squiggle" d="M32.916,5.683c8.528,0,9.7-5.374,18.178-5.374s10.14,5.611,17.892,5.374S80.283-1.53,84.048.308s.675,12.175,0,12.728c-2.319,1.1-9.181,5.028-15.062,5.072-9.416.07-8.875-5.072-17.892-5.072s-9.65,5.072-18.178,5.072-8.2-5.072-15.935-5.072S5.721,19.947,1.968,18.109s-1.2-9.882,0-12.426S9.244.308,16.981.308,24.387,5.683,32.916,5.683Z" transform="matrix(-0.391, -0.921, 0.921, -0.391, 438.125, 354.181)" fill="#c6c4f5"/>
    <path id="right-pink-paisley" d="M44.73,20.762c-3.265,7.823-15.636,2.184-28.066,4.977S3.844,35.573.429,30.822,14.723-1.155,28.27.038C39.744.973,47.995,12.939,44.73,20.762Z" transform="matrix(0.799, -0.602, 0.602, 0.799, 369.919, 173.634)" fill="#fdded6"/>
    <path id="top-right-magenta" d="M20.81,21.263C14.48,12.019,1.953,17.508.147,10.07S12.048-.279,14.687.006s7.948.865,13.107,8.4C34.125,17.649,26.051,28.917,20.81,21.263Z" transform="matrix(-0.755, -0.656, 0.656, -0.755, 454.326, 91.744)" fill="#ea5176"/>
    <path id="top-right-black-flower" d="M20.23,21.2S19.835,35.038,10.479,32s-2.4-14.441-2.4-14.441S-4.282,11.578,3.4,3.251,16.554,7.716,16.554,7.716,28.92,2.035,30.916,11.63,20.23,21.2,20.23,21.2Z" transform="translate(421.746 31.06) rotate(135)" fill="#242424"/>
    <path id="top-right-purple-squiggle" d="M37.259,10.884C46.912,10.884,48.241.59,57.835.59S69.313,11.337,78.089,10.884,90.875-2.931,95.138.59s.764,23.319,0,24.378c-2.624,2.1-10.393,9.63-17.049,9.714-10.659.134-10.046-9.714-20.253-9.714s-10.923,9.714-20.577,9.714-9.28-9.714-18.038-9.714S6.476,38.2,2.227,34.683s-1.357-18.926,0-23.8S10.463.59,19.221.59,27.605,10.884,37.259,10.884Z" transform="translate(334.642 92.104) rotate(-155)" fill="#c6c4f5"/>
    <g id="Logo" transform="translate(-398.456 -168.801)">
      <path id="D" d="M0,216.425V.856S119.4-17.034,119.4,110.792C119.4,205.67,53.616,217.9,19.706,217.9A118.966,118.966,0,0,1,0,216.425ZM0,.856v0Z" transform="translate(551.06 248.306)" fill="#4262d7"/>
      <path id="C" d="M80.614.226S0-10.067,0,63.48s80.614,60.778,80.614,60.778" transform="translate(634.067 294.778)" fill="#b6ea82"/>
    </g>
  </g>
</svg>
